<svg xmlns="http://www.w3.org/2000/svg" xml:space="preserve" width="2000" height="105" data-id="lg_D1R2qjrP0JnRQrNr4k" data-version="1" viewBox="0 0 2000 105"><g data-padding="20"><g transform="translate(10 3.271)scale(.9377)"><rect width="240.777" height="104.615" x="514.408" y="-399.927" fill="none" rx="0" ry="0" transform="translate(461.1 399.88)"/><path fill="#fff" stroke="#fff" stroke-width=".761" d="M1030.187 54.651q0 2.12-.28 4.25h-34.35q.28 4.26 2.37 6.35 2.08 2.08 5.32 2.08 4.54 0 6.48-4.07h19.35q-1.21 5.36-4.68 9.58-3.47 4.21-8.75 6.62-5.27 2.4-11.66 2.4-7.68 0-13.66-3.24-5.97-3.24-9.35-9.25-3.38-6.02-3.38-14.17t3.34-14.12q3.33-5.97 9.3-9.21t13.75-3.24q7.68 0 13.61 3.15 5.92 3.15 9.26 9.02 3.33 5.88 3.33 13.85Zm-34.53-4.54h16.01q0-3.33-2.22-5.23t-5.55-1.9q-3.34 0-5.47 1.81-2.12 1.8-2.77 5.32Zm38.97 5.09q0-8.05 2.92-14.07t7.96-9.26q5.05-3.24 11.25-3.24 5.37 0 9.26 2.13t6.02 5.74v-7.22h18.14v51.94h-18.14v-7.23q-2.13 3.61-6.07 5.74-3.93 2.13-9.21 2.13-6.2 0-11.25-3.24-5.04-3.24-7.96-9.3t-2.92-14.12Zm37.41 0q0-5-2.74-7.87-2.73-2.87-6.71-2.87-4.07 0-6.76 2.83-2.68 2.82-2.68 7.91 0 5 2.68 7.92 2.69 2.91 6.76 2.91 3.98 0 6.71-2.87 2.74-2.87 2.74-7.96Zm25.56 0q0-8.05 3.33-14.07t9.3-9.26q5.98-3.24 13.66-3.24 9.91 0 16.66 5.42 6.76 5.41 8.71 15.13h-19.26q-1.67-5.09-6.48-5.09-3.43 0-5.42 2.82-1.99 2.83-1.99 8.29t1.99 8.33 5.42 2.87q4.91 0 6.48-5.09h19.26q-1.95 9.63-8.71 15.09-6.75 5.46-16.66 5.46-7.68 0-13.66-3.24-5.97-3.24-9.3-9.25-3.33-6.02-3.33-14.17Zm93.31-26.38q8.89 0 14.12 5.97t5.23 16.15v30.28h-18.15v-27.87q0-4.44-2.31-6.99-2.32-2.55-6.21-2.55-4.07 0-6.38 2.55-2.32 2.55-2.32 6.99v27.87h-18.14v-68.51h18.14v23.97q2.41-3.51 6.53-5.69 4.12-2.17 9.49-2.17Z"/><rect width="91.621" height="105.09" x="588.987" y="-400.164" fill="none" rx="0" ry="0" transform="translate(306.29 400.12)"/><path fill="#ff851b" stroke="#ff851b" stroke-width=".761" d="M900.357 16.031h18.23v65.57h-18.23Zm25.02 0h53.01v14.51h-17.48v51.06h-18.23v-51.06h-17.3Z"/></g><path fill="transparent" stroke="transparent" d="M839.5 0h321v105h-321z"/></g></svg>